<mxfile host="app.diagrams.net" modified="2023-08-06T21:00:54.775Z" agent="Mozilla/5.0 (Macintosh; Intel Mac OS X 10_15_7) AppleWebKit/605.1.15 (KHTML, like Gecko) Version/16.6 Safari/605.1.15" version="21.6.6" etag="a5QL-6F4v5a1RvOVAQC6" type="github">
  <diagram name="Page-1" id="q-ARzgoAae-MjoLzb_5H">
    <mxGraphModel>
      <root>
        <mxCell id="0" />
        <mxCell id="1" parent="0" />
      </root>
    </mxGraphModel>
  </diagram>
</mxfile>
